<svg xmlns="http://www.w3.org/2000/svg" width="51.221" height="18" viewBox="0 0 51.221 18">
  <path fill="#fff" d="M1.177 11.641a13.7 13.7 0 0 0 1.643 1.027 4.574 4.574 0 0 0 2.228.651q1.064 0 1.064-.826a.894.894 0 0 0-.3-.663 4.383 4.383 0 0 0-1.1-.663q-.8-.376-1.2-.588a9.321 9.321 0 0 1-1.064-.7 4.16 4.16 0 0 1-1.021-1.017 6.174 6.174 0 0 1-1-3.63 4.865 4.865 0 0 1 1.64-3.718A6.077 6.077 0 0 1 6.359 0a13.5 13.5 0 0 1 3.33.388q1.527.388 1.577 1.014v.15a6.119 6.119 0 0 1-.551 2.216 4.754 4.754 0 0 1-.776 1.49 6.389 6.389 0 0 0-2.866-.826q-1.264 0-1.264.9 0 .551.926.976.2.1.576.275t.864.413a10.248 10.248 0 0 1 1.051.6 9.089 9.089 0 0 1 1.214.964 4.331 4.331 0 0 1 1.327 3.3 6.444 6.444 0 0 1-1.477 4.381A5.849 5.849 0 0 1 5.733 18a13.5 13.5 0 0 1-2.713-.25 4.89 4.89 0 0 1-2.115-.976A2.183 2.183 0 0 1 0 15.021a5.837 5.837 0 0 1 .376-2.041 3.025 3.025 0 0 1 .801-1.339Zm17.65 5.758q0 .376-2.353.376l-1.4-.075q-1.252-.1-1.252-.35V.55q0-.426 2.5-.426t2.5.426v6.41L21.876.551q.175-.35 2-.35 3.33 0 3.5.576a.222.222 0 0 1-.025.1l-4.344 7.86 5.057 6.985a2.2 2.2 0 0 1-.476.426 8.67 8.67 0 0 1-2.7 1.577 2.736 2.736 0 0 1-.951.175l-.6-.05a1.941 1.941 0 0 1-1.252-1.026l-2.858-5.458h-.4Zm12.166-3.955V4.531H29.22q-.426 0-.6-1.076a7.6 7.6 0 0 1-.08-1.075 7.6 7.6 0 0 1 .075-1.076q.175-1.076.6-1.076h8.412q.426 0 .576 1.076a5.741 5.741 0 0 1 .1 1.076 5.741 5.741 0 0 1-.1 1.076q-.15 1.076-.576 1.076H35.95v8.912h1.752q.426 0 .6 1.076a5.741 5.741 0 0 1 .1 1.076 5.741 5.741 0 0 1-.1 1.076q-.175 1.076-.6 1.076h-8.436q-.426 0-.576-1.076a5.741 5.741 0 0 1-.1-1.076 5.741 5.741 0 0 1 .1-1.076q.15-1.076.576-1.076Zm16.627 3.905q0 .5-2.478.5t-2.478-.5V4.78h-3q-.426 0-.6-1.152a8.33 8.33 0 0 1-.075-1.127 8.33 8.33 0 0 1 .075-1.127q.175-1.152.6-1.152h10.89q.426 0 .6 1.152a8.33 8.33 0 0 1 .075 1.127 8.33 8.33 0 0 1-.075 1.127q-.175 1.152-.6 1.152H47.62Z"/>
</svg>