<svg xmlns="http://www.w3.org/2000/svg" width="44.011" height="18" viewBox="0 0 44.011 18">
  <path fill="#fff" d="M1.177 11.641a13.7 13.7 0 0 0 1.643 1.027 4.574 4.574 0 0 0 2.228.651q1.064 0 1.064-.826a.894.894 0 0 0-.3-.663 4.383 4.383 0 0 0-1.1-.663q-.8-.376-1.2-.588a9.321 9.321 0 0 1-1.064-.7 4.16 4.16 0 0 1-1.021-1.017 6.174 6.174 0 0 1-1-3.63 4.865 4.865 0 0 1 1.64-3.718A6.077 6.077 0 0 1 6.359 0a13.5 13.5 0 0 1 3.33.388q1.527.388 1.577 1.014v.15a6.119 6.119 0 0 1-.551 2.216 4.754 4.754 0 0 1-.776 1.49 6.389 6.389 0 0 0-2.866-.826q-1.264 0-1.264.9 0 .551.926.976.2.1.576.275t.864.413a10.248 10.248 0 0 1 1.051.6 9.089 9.089 0 0 1 1.214.964 4.331 4.331 0 0 1 1.327 3.3 6.444 6.444 0 0 1-1.477 4.381A5.849 5.849 0 0 1 5.733 18a13.5 13.5 0 0 1-2.713-.25 4.89 4.89 0 0 1-2.115-.976A2.183 2.183 0 0 1 0 15.021a5.837 5.837 0 0 1 .376-2.041 3.025 3.025 0 0 1 .801-1.339Zm17.65 5.758q0 .376-2.353.376l-1.4-.075q-1.252-.1-1.252-.35V.55q0-.426 2.5-.426t2.5.426v6.41L21.876.551q.175-.35 2-.35 3.33 0 3.5.576a.222.222 0 0 1-.025.1l-4.344 7.86 5.057 6.985a2.2 2.2 0 0 1-.476.426 8.67 8.67 0 0 1-2.7 1.577 2.736 2.736 0 0 1-.951.175l-.6-.05a1.941 1.941 0 0 1-1.252-1.026l-2.858-5.458h-.4Zm14.971.2q0 .2-2.291.2t-2.287-.175V5.332q0-.175 2.291-.175a6.692 6.692 0 0 1 2.291.15Zm0-13.769q0 .175-2.291.175a6.691 6.691 0 0 1-2.291-.15V.25q0-.25 2.291-.25a6.691 6.691 0 0 1 2.291.15Zm8.01 13.769q0 .3-2.1.3-2.5-.1-2.5-.325V8.712H35.92q-.5 0-.5-1.727a8.478 8.478 0 0 1 .088-1.1q.088-.651.363-.651h1.327v-2.2q0-.5 2.115-.5t2.115.4v1.6l.025.7h2.128q.426 0 .426 1.752t-.426 1.752h-1.773Z"/>
</svg>