<svg xmlns="http://www.w3.org/2000/svg" width="40" height="40"><path d="M1.07 22.416a12.452 12.452 0 0 0 1.493.933 4.158 4.158 0 0 0 2.025.592q.967 0 .967-.751a.813.813 0 0 0-.273-.6 3.984 3.984 0 0 0-1-.6q-.726-.352-1.09-.54a8.473 8.473 0 0 1-.967-.636 3.781 3.781 0 0 1-.925-.924 5.612 5.612 0 0 1-.909-3.3 4.422 4.422 0 0 1 1.488-3.379 5.524 5.524 0 0 1 3.901-1.373 12.271 12.271 0 0 1 3.027.349q1.388.353 1.433.922v.136a5.562 5.562 0 0 1-.5 2.014 4.321 4.321 0 0 1-.705 1.354 5.807 5.807 0 0 0-2.605-.751q-1.149 0-1.149.818 0 .5.842.887.182.091.524.25t.785.375a9.315 9.315 0 0 1 .955.545 8.262 8.262 0 0 1 1.1.876 3.937 3.937 0 0 1 1.206 3 5.857 5.857 0 0 1-1.343 3.982 5.316 5.316 0 0 1-4.142 1.6 12.27 12.27 0 0 1-2.466-.227 4.445 4.445 0 0 1-1.922-.887A1.984 1.984 0 0 1 0 25.488a5.306 5.306 0 0 1 .342-1.855 2.75 2.75 0 0 1 .728-1.217Zm16.043 5.234q0 .342-2.139.342l-1.274-.069q-1.138-.091-1.138-.318V12.338q0-.387 2.272-.387t2.274.387v5.823l2.776-5.823q.159-.321 1.816-.321 3.027 0 3.181.524a.2.2 0 0 1-.023.091l-3.946 7.144 4.6 6.349a2 2 0 0 1-.433.387 7.881 7.881 0 0 1-2.454 1.433 2.487 2.487 0 0 1-.864.159l-.545-.045a1.764 1.764 0 0 1-1.138-.933l-2.6-4.961h-.364Zm13.608.182q0 .182-2.082.182t-2.079-.159V16.681q0-.159 2.082-.159a6.083 6.083 0 0 1 2.082.136Zm0-12.515q0 .159-2.082.159a6.082 6.082 0 0 1-2.083-.138v-3.276q0-.224 2.082-.224a6.082 6.082 0 0 1 2.082.136ZM38 27.831q0 .273-1.909.273-2.272-.091-2.272-.3v-8.051h-1.17q-.454 0-.454-1.57a7.705 7.705 0 0 1 .08-1q.08-.592.33-.592h1.206v-2q0-.454 1.922-.454t1.922.364v1.455l.023.636h1.934q.388 0 .388 1.592t-.387 1.592H38Z" fill="#fff"/></svg>