<svg xmlns="http://www.w3.org/2000/svg" width="150" height="92.089" viewBox="0 0 150 92.089">
  <g id="SvelteKit-Logo" transform="translate(-158.687 -287)">
    <path id="Symbol" d="M24.8,77.928h0A25.325,25.325,0,0,1,4.281,67.617,21.7,21.7,0,0,1,.351,50.829a20.337,20.337,0,0,1,3.223-7.783A21.376,21.376,0,0,1,1.338,28.959a20.868,20.868,0,0,1,9.749-13.923L29.894,3.468A23.829,23.829,0,0,1,42.4,0,25.314,25.314,0,0,1,62.91,10.312v.055a21.716,21.716,0,0,1,3.93,16.788,20.416,20.416,0,0,1-3.228,7.783,21.365,21.365,0,0,1,2.24,14.08A20.922,20.922,0,0,1,56.1,62.94L37.3,74.459A23.819,23.819,0,0,1,24.8,77.928ZM10.462,50.063l-.354,1.043a11.549,11.549,0,0,0-.447,1.678,13.04,13.04,0,0,0,2.357,10.1,15.115,15.115,0,0,0,12.284,6.2,15.5,15.5,0,0,0,3.754-.463A14.068,14.068,0,0,0,31.876,67L50.688,55.429a12.549,12.549,0,0,0,5.863-8.4,13.04,13.04,0,0,0-2.366-10.093,15.087,15.087,0,0,0-12.265-6.2,15.432,15.432,0,0,0-3.762.466,13.553,13.553,0,0,0-3.823,1.623l-7.21,4.413a4.434,4.434,0,0,1-1.155.485,4.648,4.648,0,0,1-1.1.133A4.555,4.555,0,0,1,21.177,36a3.979,3.979,0,0,1-.722-3.049,3.787,3.787,0,0,1,1.766-2.526L41.035,18.879a4.165,4.165,0,0,1,1.153-.488,4.661,4.661,0,0,1,1.142-.143,4.562,4.562,0,0,1,3.662,1.82,4,4,0,0,1,.762,2.7l-.065.7.72.2a24.7,24.7,0,0,1,7.356,3.549l.96.7.36-1.043a13.72,13.72,0,0,0,.447-1.693,13.036,13.036,0,0,0-2.365-10.092A15.1,15.1,0,0,0,42.894,8.88a15.454,15.454,0,0,0-3.756.464,13.91,13.91,0,0,0-3.793,1.615L16.51,22.528a12.542,12.542,0,0,0-5.861,8.393,13.045,13.045,0,0,0,2.341,10.093,15.112,15.112,0,0,0,12.272,6.2A15.465,15.465,0,0,0,29,46.75a13.986,13.986,0,0,0,3.813-1.615l7.212-4.42a4.16,4.16,0,0,1,1.152-.488,4.683,4.683,0,0,1,1.132-.139,4.559,4.559,0,0,1,3.7,1.866A3.936,3.936,0,0,1,46.731,45a3.783,3.783,0,0,1-1.767,2.534L26.187,59.1a4.328,4.328,0,0,1-1.153.488,4.67,4.67,0,0,1-1.13.139,4.564,4.564,0,0,1-3.7-1.866,4.013,4.013,0,0,1-.786-2.681l.065-.694-.72-.2a24.7,24.7,0,0,1-7.332-3.522l-.967-.7Z" transform="translate(158.687 301.161)" fill="#f8fafc"/>
    <path id="Kit" d="M11.538,16.1,4.88,23.046V9.163L26.838-14h12.75L19.047,8.1,40.793,35.584H27.405ZM44.405-2.525h11.05V35.584H44.405Zm45.9,36.267a11.358,11.358,0,0,1-4,1.806,20.234,20.234,0,0,1-4.994.6q-6.8,0-10.519-3.471t-3.719-10.2V6.825H61.193v-8.5h5.879v-9.279h11.05v9.279h9.492v8.5H78.122V22.338a5.2,5.2,0,0,0,1.24,3.719,4.594,4.594,0,0,0,3.506,1.31A7.1,7.1,0,0,0,87.33,25.95Z" transform="translate(218.382 330.184)" fill="#f8fafc"/>
    <path id="Meteor" d="M35.35,1.485C34.589,4.113,33,9.163,31.13,14.421c.484.208.9.277,1.314.415a1.215,1.215,0,0,1,.692.623,1.17,1.17,0,0,1-.069.968c-1.522,2.905-5.742,10.584-9.823,14.8a.955.955,0,0,1-.208.277A13.5,13.5,0,0,1,3.943,12.415a.955.955,0,0,1,.277-.208c4.22-4.151,11.829-8.3,14.8-9.823a1.17,1.17,0,0,1,.968-.069,1.514,1.514,0,0,1,.623.692c.069.346.208.83.346,1.314C26.219,2.453,31.269.862,33.966.1a.956.956,0,0,1,1.107.277A.956.956,0,0,1,35.35,1.485ZM22.137,22.169a8.855,8.855,0,1,0-8.855,8.855A8.828,8.828,0,0,0,22.137,22.169Zm-8.855-2.214a2.131,2.131,0,1,1-.623-1.591A2.185,2.185,0,0,1,13.282,19.955ZM15.5,25.489a1.107,1.107,0,1,1-1.107-1.107A1.093,1.093,0,0,1,15.5,25.489Z" transform="translate(258.961 286.966)" fill="#f8fafc"/>
  </g>
</svg>
