<svg xmlns="http://www.w3.org/2000/svg" width="24" height="24"><defs><linearGradient id="a" x2="1" y2="1" gradientUnits="objectBoundingBox"><stop offset="0" stop-color="#4ade80"/><stop offset="1" stop-color="#06b6d4"/></linearGradient></defs><rect width="24" height="24" rx="6" fill="url(#a)"/><path d="M8 9a1 1 0 011-1h8a1 1 0 011 1v7.5a1.5 1.5 0 01-1.5 1.5h-7A1.5 1.5 0 018 16.5z" fill="#6ee7b7"/><path d="M15 7a1 1 0 00-1-1H7a1 1 0 00-1 1v9.5A1.5 1.5 0 007.5 18H16v-.085a1.5 1.5 0 01-1-1.415z" fill="#ecfdf5"/><path d="M8 8h5v4H8zm0 6h5v2H8z" fill="#a7f3d0"/></svg>