<svg xmlns="http://www.w3.org/2000/svg" width="24" height="24"><defs><linearGradient id="a" x2="1" y2="1" gradientUnits="objectBoundingBox"><stop offset="0" stop-color="#facc15"/><stop offset="1" stop-color="#f97316"/></linearGradient></defs><rect width="24" height="24" rx="6" fill="url(#a)"/><g fill-rule="evenodd"><path d="M13.2 6.019a1 1 0 01.781 1.18l-2 10a1 1 0 11-1.961-.4l2-10a1 1 0 011.18-.78z" fill="#fde68a"/><path d="M15.293 9.292a1 1 0 011.414 0l2 2a1 1 0 010 1.414l-2 2a1 1 0 11-1.414-1.414l1.293-1.293-1.293-1.293a1 1 0 010-1.414zm-6.586 0a1 1 0 010 1.414l-1.293 1.293 1.293 1.293a1 1 0 11-1.414 1.414l-2-2a1 1 0 010-1.414l2-2a1 1 0 011.414 0z" fill="#fdf4ff"/></g></svg>