<svg xmlns="http://www.w3.org/2000/svg" width="24" height="24"><defs><linearGradient id="a" x2="1" y2="1" gradientUnits="objectBoundingBox"><stop offset="0" stop-color="#38bdf8"/><stop offset="1" stop-color="#6366f1"/></linearGradient></defs><rect width="24" height="24" rx="6" fill="url(#a)"/><path d="M17 13a1 1 0 011 1v3a1 1 0 01-1 1H8.5a2.5 2.5 0 110-5z" fill="#93c5fd"/><path d="M12.743 7.722a1 1 0 011.414 0l2.122 2.121a1 1 0 010 1.414l-6.01 6.01a2.5 2.5 0 01-3.536-3.536l6.01-6.01z" fill="#bfdbfe"/><path d="M6 7a1 1 0 011-1h3a1 1 0 011 1v8.5a2.5 2.5 0 01-5 0z" fill="#eff6ff"/><path d="M9.5 15.5a1 1 0 11-1-1 1 1 0 011 1z" fill="#60a5fa"/></svg>